<svg width="659" height="267" xmlns="http://www.w3.org/2000/svg" xmlns:xlink="http://www.w3.org/1999/xlink" xml:space="preserve" overflow="hidden"><defs><clipPath id="clip0"><rect x="310" y="226" width="659" height="267"/></clipPath><clipPath id="clip1"><rect x="310" y="226" width="659" height="267"/></clipPath><clipPath id="clip2"><rect x="311" y="227" width="658" height="266"/></clipPath><clipPath id="clip3"><rect x="311" y="227" width="658" height="266"/></clipPath><clipPath id="clip4"><rect x="311" y="227" width="658" height="266"/></clipPath></defs><g clip-path="url(#clip0)" transform="translate(-310 -226)"><g clip-path="url(#clip1)"><g clip-path="url(#clip2)"><g clip-path="url(#clip3)"><g clip-path="url(#clip4)"><path d="M308.442 154.482C308.442 164.755 300.107 173.089 289.835 173.089 279.563 173.089 271.228 164.755 271.228 154.482 271.228 144.21 279.563 135.876 289.835 135.876 300.107 135.876 308.442 144.21 308.442 154.482" fill="#EB1D25" fill-rule="nonzero" fill-opacity="1" transform="matrix(1.00823 0 0 1 312.802 227)"/><path d="M465.323 84.8838C450.13 84.8838 438.259 97.0628 438.259 112.563 438.259 128.064 450.161 140.274 465.323 140.274 480.485 140.274 492.388 127.849 492.388 112.563 492.388 97.2781 480.239 84.8838 465.323 84.8838M465.323 147.409C446.132 147.409 431.093 132.093 431.093 112.563 431.093 93.0339 446.132 77.7179 465.323 77.7179 484.514 77.7179 499.553 93.3414 499.553 112.563 499.553 131.785 484.207 147.409 465.323 147.409M465.108 58.1577C434.015 58.1577 409.657 82.1466 409.657 112.779 409.657 143.411 434.015 167.399 465.108 167.399 496.201 167.399 520.774 143.411 520.774 112.779 520.774 82.1466 496.324 58.1577 465.108 58.1577M465.108 174.535C430.016 174.535 402.521 147.409 402.521 112.779 402.521 78.1485 430.016 51.0225 465.108 51.0225 500.199 51.0225 527.91 78.1485 527.91 112.779 527.91 147.409 500.322 174.535 465.108 174.535" fill="#231F20" fill-rule="nonzero" fill-opacity="1" transform="matrix(1.00823 0 0 1 312.802 227)"/><path d="M620.144 163.986 641.918 163.986 641.918 100.723C641.918 74.0888 627.248 58.1577 602.644 58.1577 590.404 58.1577 579.916 63.3861 573.15 72.8586L566.661 81.9313 566.661 60.4028 545.501 60.4028 545.501 163.955 566.845 163.955 566.845 106.443C566.845 88.1131 577.763 75.8111 594.002 75.8111 610.241 75.8111 620.113 86.7291 620.113 104.998L620.113 163.955ZM649.054 171.121 613.009 171.121 613.009 105.028C613.009 94.9714 609.718 82.977 594.033 82.977 581.885 82.977 574.011 92.2035 574.011 106.474L574.011 171.152 538.366 171.152 538.366 53.2677 573.796 53.2677 573.796 61.5408C581.546 54.7747 591.634 51.0225 602.613 51.0225 631.246 51.0225 649.023 70.0599 649.023 100.723L649.023 171.121Z" fill="#231F20" fill-rule="nonzero" fill-opacity="1" transform="matrix(1.00823 0 0 1 312.802 227)"/><path d="M351.13 174.535C339.197 174.535 327.695 171.367 317.853 165.339L321.574 159.249C330.278 164.57 340.519 167.399 351.13 167.399 366.661 167.399 380.747 161.648 391.142 151.099L375.426 137.352C369.06 143.78 360.479 147.409 351.314 147.409 332.123 147.409 317.084 132.093 317.084 112.563 317.084 93.0339 332.123 77.7179 351.314 77.7179 360.787 77.7179 369.614 81.593 376.041 88.4514L392.557 76.0264C382.1 64.6163 367.215 58.1577 351.13 58.1577 320.037 58.1577 295.679 82.1466 295.679 112.779 295.679 116.5 296.048 120.191 296.755 123.789L289.743 125.204C288.912 121.144 288.513 116.961 288.513 112.779 288.513 78.1485 316.008 51.0225 351.099 51.0225 370.659 51.0225 388.651 59.5417 400.522 74.3963L402.829 77.2566 374.811 98.3237 372.658 95.4943C367.491 88.7282 359.71 84.853 351.314 84.853 336.121 84.853 324.25 97.032 324.25 112.533 324.25 128.033 336.152 140.243 351.314 140.243 359.526 140.243 367.153 136.552 372.32 130.094L374.657 127.172 401.291 150.453 398.954 153.129C387.175 166.723 369.737 174.504 351.13 174.504" fill="#231F20" fill-rule="nonzero" fill-opacity="1" transform="matrix(1.00823 0 0 1 312.802 227)"/><path d="M0 54.4671 19.5602 54.4671 19.5602 50.2844C19.5602 11.8714 31.6161 0 70.2752 0L78.1792 0 78.1792 27.6795 73.1354 27.6795C52.0375 27.6795 49.6386 30.755 49.6386 48.7774L49.6386 54.4979 78.1792 54.4979 78.1792 81.7468 49.6386 81.7468 49.6386 173.12 19.5602 173.12 19.5602 81.7468 0 81.7468 0 54.4979Z" fill="#EB1D25" fill-rule="nonzero" fill-opacity="1" transform="matrix(1.00823 0 0 1 312.802 227)"/><path d="M171.521 128.925 171.521 122.559 143.626 122.559C125.634 122.559 118.376 128.279 118.376 137.506 118.376 146.086 124.312 150.453 136.829 150.453 151.315 150.453 165.616 141.658 171.521 128.925M86.7598 140.12C86.7598 115.516 107.181 100.354 140.12 100.354L171.305 100.354 171.305 98.8158C171.305 86.0832 162.725 77.2873 145.594 77.2873 132.185 77.2873 123.205 83.0077 117.699 92.8801L89.8046 79.0404C101.891 63.2323 119.237 52.0375 145.809 52.0375 180.747 52.0375 200.738 70.2752 200.738 100.138L200.738 173.058 171.521 173.058 171.521 154.821C162.971 167.123 146.701 175.457 128.033 175.457 102.107 175.457 86.7291 160.972 86.7291 140.089" fill="#EB1D25" fill-rule="nonzero" fill-opacity="1" transform="matrix(1.00823 0 0 1 312.802 227)"/><path d="M224.235 0 254.528 0 254.528 173.089 224.235 173.089Z" fill="#EB1D25" fill-rule="nonzero" fill-opacity="1" transform="matrix(1.00823 0 0 1 312.802 227)"/><path d="M324.404 230.816 324.404 230.14 318.622 225.127 317.945 225.127C316.346 226.88 313.916 228.202 311.179 228.202 306.904 228.202 303.521 224.911 303.521 220.39 303.521 215.869 306.873 212.609 311.179 212.609 313.916 212.609 316.377 213.932 317.945 215.685L318.622 215.685 324.404 210.672 324.404 209.995C321.39 206.274 316.623 203.875 311.241 203.875 301.337 203.875 293.833 210.949 293.833 220.39 293.833 220.759 293.926 221.098 293.926 221.467 297.985 224.235 301.553 226.48 304.628 228.51 309.057 231.339 312.655 233.953 315.608 236.352 319.298 235.399 322.282 233.369 324.373 230.786" fill="#010101" fill-rule="nonzero" fill-opacity="1" transform="matrix(1.00823 0 0 1 312.802 227)"/><path d="M345.963 215.654C345.963 217.745 344.425 218.791 342.641 218.791L338.213 218.791 338.213 212.333 342.641 212.333C344.425 212.333 345.963 213.501 345.963 215.654M357.804 234.814 356.358 228.54 355.835 228.202C355.559 228.356 355.312 228.54 354.574 228.54 353.467 228.54 352.791 227.372 352.206 226.418 351.253 224.942 350.484 224.173 349.807 223.804 353.313 222.236 355.682 219.283 355.682 215.07 355.682 208.55 351.253 204.428 343.041 204.428L328.709 204.428 328.709 236.291 338.213 236.291 338.213 225.127 339.074 225.127C341.196 225.127 343.872 229.74 345.133 231.8 347.716 235.983 349.807 236.906 353.498 236.906 355.22 236.906 356.666 236.26 357.527 235.491L357.773 234.814Z" fill="#010101" fill-rule="nonzero" fill-opacity="1" transform="matrix(1.00823 0 0 1 312.802 227)"/><path d="M384.868 220.421C384.868 224.973 381.393 228.202 377.118 228.202 372.843 228.202 369.368 224.973 369.368 220.421 369.368 215.869 372.843 212.64 377.118 212.64 381.393 212.64 384.868 215.869 384.868 220.421M394.556 220.421C394.556 210.949 387.052 203.906 377.118 203.906 367.184 203.906 359.68 210.979 359.68 220.421 359.68 229.863 367.184 236.937 377.118 236.937 387.052 236.937 394.556 229.832 394.556 220.421" fill="#010101" fill-rule="nonzero" fill-opacity="1" transform="matrix(1.00823 0 0 1 312.802 227)"/><path d="M442.195 204.459 433.123 204.459 427.495 222.113 421.528 204.459 415.777 204.459 409.841 222.02 404.213 204.459 395.14 204.459 394.71 205.197 406.335 236.352 412.117 236.352 418.637 218.976 425.219 236.352 431.001 236.352 442.626 205.197 442.195 204.459Z" fill="#010101" fill-rule="nonzero" fill-opacity="1" transform="matrix(1.00823 0 0 1 312.802 227)"/><path d="M467.784 220.421C467.784 225.619 464.739 228.51 460.587 228.51L455.912 228.51 455.912 212.333 460.587 212.333C464.77 212.333 467.784 215.223 467.784 220.421M477.471 220.36C477.471 210.856 471.167 204.459 460.925 204.459L446.347 204.459 446.347 236.321 460.925 236.321C471.167 236.321 477.471 229.955 477.471 220.329" fill="#010101" fill-rule="nonzero" fill-opacity="1" transform="matrix(1.00823 0 0 1 312.802 227)"/><path d="M527.879 212.333 537.413 212.333 537.413 204.459 508.872 204.459 508.872 212.333 518.376 212.333 518.376 236.352 527.879 236.352 527.879 212.333Z" fill="#010101" fill-rule="nonzero" fill-opacity="1" transform="matrix(1.00823 0 0 1 312.802 227)"/><path d="M558.142 215.654C558.142 217.776 556.604 218.791 554.82 218.791L550.391 218.791 550.391 212.333 554.82 212.333C556.604 212.333 558.142 213.501 558.142 215.654M567.83 215.1C567.83 208.58 563.401 204.459 555.189 204.459L540.857 204.459 540.857 236.321 550.361 236.321 550.361 225.157 552.606 225.157 558.511 236.321 567.983 236.321 568.414 235.583 562.078 223.773C565.492 222.143 567.799 219.252 567.799 215.1" fill="#010101" fill-rule="nonzero" fill-opacity="1" transform="matrix(1.00823 0 0 1 312.802 227)"/><path d="M573.612 204.459 583.115 204.459 583.115 236.321 573.612 236.321Z" fill="#010101" fill-rule="nonzero" fill-opacity="1" transform="matrix(1.00823 0 0 1 312.802 227)"/><path d="M607.257 218.73 618.022 205.197 617.591 204.459 607.442 204.459 598.646 215.808 598.646 204.459 589.112 204.459 589.112 236.352 598.646 236.352 598.646 226.541 600.368 224.481 608.457 236.352 618.391 236.352 618.821 235.614 607.257 218.73Z" fill="#010101" fill-rule="nonzero" fill-opacity="1" transform="matrix(1.00823 0 0 1 312.802 227)"/><path d="M645.209 212.333 645.209 204.459 621.436 204.459 621.436 236.352 645.363 236.352 645.363 228.51 630.939 228.51 630.939 224.081 641.795 224.081 641.795 216.73 630.939 216.73 630.939 212.333 645.209 212.333Z" fill="#010101" fill-rule="nonzero" fill-opacity="1" transform="matrix(1.00823 0 0 1 312.802 227)"/><path d="M493.587 236.721C500.568 236.721 506.596 233.277 506.596 226.664 506.596 219.468 500.507 217.592 495.125 216.023 493.003 215.377 490.85 214.639 490.85 213.071 490.85 211.933 492.049 211.256 493.895 211.256 497.032 211.256 499.676 213.224 500.999 214.485L501.676 214.485 506.135 209.103 506.135 208.427C503.767 205.72 498.969 203.69 493.679 203.69 486.267 203.69 481.131 207.719 481.131 213.532 481.131 219.806 486.79 222.543 491.619 223.927 494.756 224.819 496.878 224.973 496.878 226.664 496.878 227.895 495.402 228.633 493.064 228.633 490.142 228.633 486.575 226.726 484.853 225.004L484.176 225.004 479.747 230.601 479.747 231.278C482.577 234.476 487.682 236.721 493.587 236.721" fill="#010101" fill-rule="nonzero" fill-opacity="1" transform="matrix(1.00823 0 0 1 312.802 227)"/><path d="M329.509 266C327.202 260.679 322.589 253.883 304.444 244.133 296.078 239.458 281.777 232.231 268.922 218.545 270.09 223.497 276.057 234.353 301.737 247.947 308.842 251.853 320.867 255.543 329.509 266.031" fill="#EC2227" fill-rule="nonzero" fill-opacity="1" transform="matrix(1.00823 0 0 1 312.802 227)"/><path d="M328.34 256.897C326.157 250.622 322.189 242.565 303.46 230.632 294.325 224.604 280.947 217.069 263.324 197.785 264.585 202.983 270.152 216.484 298.231 234.046 307.458 240.35 319.36 244.225 328.34 256.927" fill="#EC2227" fill-rule="nonzero" fill-opacity="1" transform="matrix(1.00823 0 0 1 312.802 227)"/></g></g></g></g></g></svg>